<svg width="22" height="22" viewBox="0 0 22 22" fill="none" xmlns="http://www.w3.org/2000/svg">
<path fill-rule="evenodd" clip-rule="evenodd" d="M1.10254 4.1016C1.10254 3.72404 1.39867 3.41797 1.76397 3.41797H19.4022C19.7675 3.41797 20.0636 3.72404 20.0636 4.1016V17.7743C20.0636 18.1519 19.7675 18.4579 19.4022 18.4579H1.76397C1.39867 18.4579 1.10254 18.1519 1.10254 17.7743V4.1016ZM2.42541 4.78524V17.0907H18.7408V4.78524H2.42541Z" fill="#BCBCBC"/>
<path fill-rule="evenodd" clip-rule="evenodd" d="M1.23486 3.69146C1.45404 3.38941 1.86863 3.3282 2.16087 3.55474L10.5831 10.0835L19.0054 3.55474C19.2976 3.3282 19.7122 3.38941 19.9314 3.69146C20.1506 3.99351 20.0913 4.42202 19.7991 4.64855L10.98 11.4849C10.7448 11.6672 10.4214 11.6672 10.1863 11.4849L1.36715 4.64855C1.07491 4.42202 1.01568 3.99351 1.23486 3.69146Z" fill="#BCBCBC"/>
<path fill-rule="evenodd" clip-rule="evenodd" d="M1.10254 4.1016C1.10254 3.72404 1.39867 3.41797 1.76397 3.41797H10.5831C10.9484 3.41797 11.2445 3.72404 11.2445 4.1016C11.2445 4.47917 10.9484 4.78524 10.5831 4.78524H2.42541V10.938C2.42541 11.3155 2.12927 11.6216 1.76397 11.6216C1.39867 11.6216 1.10254 11.3155 1.10254 10.938V4.1016Z" fill="#BCBCBC"/>
<path fill-rule="evenodd" clip-rule="evenodd" d="M9.92165 4.1016C9.92165 3.72404 10.2178 3.41797 10.5831 3.41797H19.4022C19.7675 3.41797 20.0636 3.72404 20.0636 4.1016V10.938C20.0636 11.3155 19.7675 11.6216 19.4022 11.6216C19.0369 11.6216 18.7408 11.3155 18.7408 10.938V4.78524H10.5831C10.2178 4.78524 9.92165 4.47917 9.92165 4.1016Z" fill="#BCBCBC"/>
</svg>
