<svg width="32" height="34" viewBox="0 0 32 34" fill="none" xmlns="http://www.w3.org/2000/svg">
<rect x="0.246094" y="0.840637" width="31.7488" height="32.8145" rx="5" fill="#03A885"/>
<path d="M19.1461 17.3406C19.1461 17.8153 19.0053 18.2793 18.7416 18.674C18.4779 19.0687 18.1031 19.3763 17.6645 19.5579C17.226 19.7396 16.7434 19.7871 16.2779 19.6945C15.8123 19.6019 15.3847 19.3733 15.049 19.0377C14.7134 18.702 14.4848 18.2744 14.3922 17.8089C14.2996 17.3433 14.3471 16.8607 14.5288 16.4222C14.7104 15.9837 15.018 15.6088 15.4127 15.3451C15.8074 15.0814 16.2714 14.9406 16.7461 14.9406C17.3824 14.9414 17.9924 15.1945 18.4423 15.6444C18.8923 16.0943 19.1454 16.7043 19.1461 17.3406ZM24.2461 14.0406V20.6406C24.2448 21.7542 23.8019 22.8217 23.0146 23.6091C22.2272 24.3965 21.1596 24.8394 20.0461 24.8406H13.4461C12.3326 24.8394 11.265 24.3965 10.4776 23.6091C9.69026 22.8217 9.24735 21.7542 9.24609 20.6406V14.0406C9.24735 12.9271 9.69026 11.8596 10.4776 11.0722C11.265 10.2848 12.3326 9.8419 13.4461 9.84064H20.0461C21.1596 9.8419 22.2272 10.2848 23.0146 11.0722C23.8019 11.8596 24.2448 12.9271 24.2461 14.0406ZM20.3461 17.3406C20.3461 16.6286 20.135 15.9326 19.7394 15.3406C19.3438 14.7486 18.7816 14.2871 18.1238 14.0147C17.4659 13.7422 16.7421 13.6709 16.0438 13.8098C15.3454 13.9487 14.704 14.2916 14.2005 14.7951C13.697 15.2985 13.3542 15.94 13.2153 16.6383C13.0764 17.3366 13.1477 18.0605 13.4201 18.7183C13.6926 19.3761 14.154 19.9384 14.746 20.3339C15.3381 20.7295 16.0341 20.9406 16.7461 20.9406C17.7005 20.9396 18.6156 20.5599 19.2905 19.885C19.9654 19.2101 20.345 18.2951 20.3461 17.3406ZM21.5461 13.4406C21.5461 13.2626 21.4933 13.0886 21.3944 12.9406C21.2955 12.7926 21.155 12.6773 20.9905 12.6091C20.8261 12.541 20.6451 12.5232 20.4705 12.5579C20.2959 12.5927 20.1356 12.6784 20.0097 12.8042C19.8838 12.9301 19.7981 13.0905 19.7634 13.2651C19.7287 13.4396 19.7465 13.6206 19.8146 13.7851C19.8827 13.9495 19.9981 14.0901 20.1461 14.189C20.2941 14.2879 20.4681 14.3406 20.6461 14.3406C20.8848 14.3406 21.1137 14.2458 21.2825 14.077C21.4513 13.9083 21.5461 13.6793 21.5461 13.4406Z" fill="white"/>
</svg>
