<svg width="33" height="34" viewBox="0 0 33 34" fill="none" xmlns="http://www.w3.org/2000/svg">
<rect x="0.748047" y="0.840637" width="31.7488" height="32.8145" rx="5" fill="#03A885"/>
<g clip-path="url(#clip0_362_2162)">
<path d="M23.4575 13.9561C23.4676 14.0996 23.4676 14.2432 23.4676 14.3868C23.4676 18.7654 20.194 23.8107 14.2109 23.8107C12.3676 23.8107 10.6552 23.2672 9.21484 22.3238C9.47674 22.3545 9.72853 22.3648 10.0005 22.3648C11.5214 22.3648 12.9216 21.8418 14.0396 20.9497C12.6093 20.9189 11.4107 19.9652 10.9977 18.6527C11.1992 18.6834 11.4006 18.7039 11.6121 18.7039C11.9042 18.7039 12.1964 18.6629 12.4683 18.5911C10.9776 18.2835 9.85946 16.9504 9.85946 15.3404V15.2994C10.2926 15.5455 10.7962 15.6994 11.3301 15.7199C10.4537 15.1251 9.87962 14.1099 9.87962 12.9614C9.87962 12.3461 10.0407 11.7821 10.3228 11.2899C11.9244 13.2998 14.3317 14.6123 17.0312 14.7559C16.9808 14.5098 16.9506 14.2535 16.9506 13.9971C16.9506 12.1718 18.401 10.6849 20.204 10.6849C21.1408 10.6849 21.9869 11.0848 22.5812 11.7309C23.3164 11.5873 24.0215 11.3104 24.6461 10.931C24.4043 11.7001 23.8906 12.3461 23.2157 12.7563C23.8705 12.6846 24.505 12.4999 25.0892 12.2436C24.6461 12.8999 24.0921 13.4843 23.4575 13.9561Z" fill="white"/>
</g>
<defs>
<clipPath id="clip0_362_2162">
<rect width="17.7793" height="17.5011" fill="white" transform="translate(8.15625 8.49725)"/>
</clipPath>
</defs>
</svg>
