<svg width="33" height="34" viewBox="0 0 33 34" fill="none" xmlns="http://www.w3.org/2000/svg">
<rect x="0.498047" y="0.840637" width="31.7488" height="32.8145" rx="5" fill="#03A885"/>
<g clip-path="url(#clip0_362_2165)">
<path d="M12.376 23.8111H9.21657V13.5873H12.376V23.8111ZM10.7946 12.1927C9.7843 12.1927 8.96484 11.3519 8.96484 10.3367C8.96484 9.84902 9.15762 9.38135 9.50077 9.03654C9.84391 8.69173 10.3093 8.49802 10.7946 8.49802C11.2799 8.49802 11.7453 8.69173 12.0884 9.03654C12.4316 9.38135 12.6243 9.84902 12.6243 10.3367C12.6243 11.3519 11.8045 12.1927 10.7946 12.1927ZM24.2009 23.8111H21.0482V18.8342C21.0482 17.6481 21.0244 16.127 19.4055 16.127C17.7629 16.127 17.5112 17.4157 17.5112 18.7488V23.8111H14.3551V13.5873H17.3853V14.982H17.4295C17.8513 14.1787 18.8817 13.331 20.4189 13.331C23.6165 13.331 24.2043 15.4468 24.2043 18.195V23.8111H24.2009Z" fill="white"/>
</g>
<defs>
<clipPath id="clip0_362_2165">
<rect width="15.2394" height="17.5011" fill="white" transform="translate(8.96484 8.49725)"/>
</clipPath>
</defs>
</svg>
