<svg width="36" height="36" viewBox="0 0 36 36" fill="none" xmlns="http://www.w3.org/2000/svg">
<g clip-path="url(#clip0_233_428)">
<path d="M30 9.1515V7.5C30 3.3645 26.6355 0 22.5 0H13.5C9.3645 0 6 3.3645 6 7.5V9.1515C2.5815 9.849 0 12.879 0 16.5V28.5C0 32.6355 3.3645 36 7.5 36H28.5C32.6355 36 36 32.6355 36 28.5V16.5C36 12.879 33.4185 9.8475 30 9.1515ZM3 28.5V16.5C3 14.544 4.254 12.8775 6 12.258V32.742C4.254 32.1225 3 30.456 3 28.5ZM9 7.5C9 5.019 11.019 3 13.5 3H22.5C24.981 3 27 5.019 27 7.5V33H9V7.5ZM33 28.5C33 30.456 31.746 32.1225 30 32.742V12.258C31.746 12.8775 33 14.544 33 16.5V28.5ZM16.5 21C16.5 21.828 15.8295 22.5 15 22.5H13.5C12.6705 22.5 12 21.828 12 21C12 20.172 12.6705 19.5 13.5 19.5H15C15.8295 19.5 16.5 20.172 16.5 21ZM24 21C24 21.828 23.3295 22.5 22.5 22.5H21C20.1705 22.5 19.5 21.828 19.5 21C19.5 20.172 20.1705 19.5 21 19.5H22.5C23.3295 19.5 24 20.172 24 21ZM16.5 27C16.5 27.828 15.8295 28.5 15 28.5H13.5C12.6705 28.5 12 27.828 12 27C12 26.172 12.6705 25.5 13.5 25.5H15C15.8295 25.5 16.5 26.172 16.5 27ZM24 27C24 27.828 23.3295 28.5 22.5 28.5H21C20.1705 28.5 19.5 27.828 19.5 27C19.5 26.172 20.1705 25.5 21 25.5H22.5C23.3295 25.5 24 26.172 24 27ZM19.5 13.5C19.5 14.328 18.8295 15 18 15C17.1705 15 16.5 14.328 16.5 13.5V12H15C14.1705 12 13.5 11.328 13.5 10.5C13.5 9.672 14.1705 9 15 9H16.5V7.5C16.5 6.672 17.1705 6 18 6C18.8295 6 19.5 6.672 19.5 7.5V9H21C21.8295 9 22.5 9.672 22.5 10.5C22.5 11.328 21.8295 12 21 12H19.5V13.5Z" fill="#1D428B"/>
</g>
<defs>
<clipPath id="clip0_233_428">
<rect width="36" height="36" fill="white"/>
</clipPath>
</defs>
</svg>
