<svg width="36" height="36" viewBox="0 0 36 36" fill="none" xmlns="http://www.w3.org/2000/svg">
<g clip-path="url(#clip0_233_439)">
<path d="M7.5 6C7.5 5.172 8.172 4.5 9 4.5H12V1.5C12 0.672 12.672 0 13.5 0C14.328 0 15 0.672 15 1.5V4.5H18C18.828 4.5 19.5 5.172 19.5 6C19.5 6.828 18.828 7.5 18 7.5H15V10.5C15 11.328 14.328 12 13.5 12C12.672 12 12 11.328 12 10.5V7.5H9C8.172 7.5 7.5 6.828 7.5 6ZM34.854 19.5225L24.6465 30.978C21.8025 34.17 17.721 36 13.4475 36H6C2.691 36 0 33.309 0 30V22.5C0 19.191 2.691 16.5 6 16.5H19.287C20.9955 16.5 22.494 17.4135 23.3205 18.777L28.1445 13.476C28.9575 12.5835 30.0675 12.06 31.2735 12.0045C32.478 11.937 33.633 12.3645 34.5255 13.1775C36.3465 14.838 36.4935 17.6835 34.854 19.521V19.5225ZM32.505 15.396C32.2065 15.1245 31.8165 14.9955 31.413 15.003C31.008 15.0225 30.636 15.1965 30.363 15.4965L23.724 22.7925C23.1465 24.399 21.7155 25.629 19.953 25.881L12.2115 26.9865C11.394 27.105 10.632 26.535 10.515 25.7145C10.398 24.894 10.968 24.135 11.787 24.018L19.5285 22.9125C20.367 22.7925 21 22.0635 21 21.216C21 20.271 20.232 19.503 19.287 19.503H6C4.3455 19.503 3 20.8485 3 22.503V30.003C3 31.6575 4.3455 33.003 6 33.003H13.4475C16.866 33.003 20.133 31.539 22.407 28.986L32.6145 17.529C33.165 16.911 33.1155 15.9555 32.505 15.3975V15.396Z" fill="#1D428B"/>
</g>
<defs>
<clipPath id="clip0_233_439">
<rect width="36" height="36" fill="white"/>
</clipPath>
</defs>
</svg>
