<svg width="37" height="36" viewBox="0 0 37 36" fill="none" xmlns="http://www.w3.org/2000/svg">
<g clip-path="url(#clip0_233_444)">
<path d="M10.25 24H2C1.172 24 0.5 23.328 0.5 22.5C0.5 21.672 1.172 21 2 21H9.4475L12.002 17.1675C12.2975 16.7235 12.815 16.458 13.343 16.503C13.877 16.536 14.3525 16.851 14.5925 17.3295L17.936 24.018L19.502 21.669C19.781 21.252 20.249 21.0015 20.75 21.0015H27.5C28.328 21.0015 29 21.6735 29 22.5015C29 23.3295 28.328 24.0015 27.5 24.0015H21.5525L18.998 27.834C18.719 28.2525 18.2495 28.5015 17.75 28.5015C17.7185 28.5015 17.687 28.5015 17.657 28.4985C17.123 28.4655 16.6475 28.1505 16.4075 27.672L13.064 20.9835L11.498 23.3325C11.219 23.7495 10.751 24 10.25 24ZM33.5 15.7275V28.5C33.5 32.6355 30.1355 36 26 36H11C6.8645 36 3.5 32.6355 3.5 28.5C3.5 27.672 4.172 27 5 27C5.828 27 6.5 27.672 6.5 28.5C6.5 30.981 8.519 33 11 33H26C28.481 33 30.5 30.981 30.5 28.5V15.7275C30.5 15.483 30.488 15.24 30.4655 15H23C20.519 15 18.5 12.981 18.5 10.5V3.0345C18.26 3.012 18.017 3 17.7725 3H11C8.519 3 6.5 5.019 6.5 7.5V16.5C6.5 17.328 5.828 18 5 18C4.172 18 3.5 17.328 3.5 16.5V7.5C3.5 3.3645 6.8645 0 11 0H17.7725C20.5775 0 23.213 1.092 25.1975 3.075L30.425 8.3025C32.408 10.2855 33.5 12.9225 33.5 15.7275ZM29.5115 12C29.1845 11.4315 28.781 10.9005 28.304 10.425L23.0765 5.1975C22.5995 4.7205 22.07 4.317 21.5015 3.99V10.5015C21.5015 11.328 22.175 12.0015 23.0015 12.0015H29.513L29.5115 12Z" fill="#1D428B"/>
</g>
<defs>
<clipPath id="clip0_233_444">
<rect width="36" height="36" fill="white" transform="translate(0.5)"/>
</clipPath>
</defs>
</svg>
