<svg width="22" height="22" viewBox="0 0 22 22" fill="none" xmlns="http://www.w3.org/2000/svg">
<path d="M3.30762 8.65915C3.30762 4.50596 6.56507 1.13916 10.5834 1.13916C14.6017 1.13916 17.8591 4.50596 17.8591 8.65915C17.8591 11.8638 16.0834 14.868 14.4043 17.0085C13.5546 18.0916 12.7065 18.9827 12.071 19.603C11.7529 19.9135 11.487 20.1572 11.2994 20.3243C11.2056 20.4079 11.1313 20.4724 11.0798 20.5165C11.054 20.5386 11.0339 20.5556 11.0199 20.5674L11.0035 20.5811L10.9989 20.585L10.9974 20.5862C10.9974 20.5862 10.9966 20.5869 10.5834 20.0531C10.1702 20.5869 10.1698 20.5866 10.1698 20.5866L10.1679 20.585L10.1632 20.5811L10.1469 20.5674C10.1329 20.5556 10.1128 20.5386 10.087 20.5165C10.0355 20.4724 9.96116 20.4079 9.86734 20.3243C9.67977 20.1572 9.41387 19.9135 9.09574 19.603C8.46029 18.9827 7.61216 18.0916 6.76244 17.0085C5.08332 14.868 3.30762 11.8638 3.30762 8.65915ZM10.5834 20.0531L10.1698 20.5866C10.4114 20.7864 10.755 20.7866 10.9966 20.5869L10.5834 20.0531ZM10.5834 19.1557C10.741 19.0122 10.9377 18.8286 11.1627 18.6089C11.7675 18.0186 12.5729 17.1721 13.3768 16.1474C15.0048 14.0721 16.5363 11.3793 16.5363 8.65915C16.5363 5.26108 13.8711 2.50643 10.5834 2.50643C7.29567 2.50643 4.63048 5.26108 4.63048 8.65915C4.63048 11.3793 6.16195 14.0721 7.78999 16.1474C8.59385 17.1721 9.39931 18.0186 10.004 18.6089C10.2291 18.8286 10.4257 19.0122 10.5834 19.1557Z" fill="#BCBCBC"/>
<path d="M7.27622 8.65915C7.27622 6.77135 8.75689 5.24097 10.5834 5.24097C12.4099 5.24097 13.8905 6.77135 13.8905 8.65915C13.8905 10.547 12.4099 12.0773 10.5834 12.0773C8.75689 12.0773 7.27622 10.547 7.27622 8.65915ZM10.5834 6.60824C9.48749 6.60824 8.59908 7.52647 8.59908 8.65915C8.59908 9.79183 9.48749 10.7101 10.5834 10.7101C11.6793 10.7101 12.5677 9.79183 12.5677 8.65915C12.5677 7.52647 11.6793 6.60824 10.5834 6.60824Z" fill="#BCBCBC"/>
</svg>
