<svg width="22" height="22" viewBox="0 0 22 22" fill="none" xmlns="http://www.w3.org/2000/svg">
<path d="M5.1673 4.30196C4.45623 4.30196 4.01267 4.96052 4.2158 5.58276C4.94416 7.81381 6.30143 11.1701 8.32558 13.2621C10.3497 15.3542 13.597 16.7571 15.7556 17.5099C16.3576 17.7198 16.9948 17.2614 16.9948 16.5264V14.261C16.9948 14.1799 16.9523 14.1053 16.8838 14.0659L14.9745 12.9688C14.9121 12.933 14.8367 12.9313 14.773 12.9642L12.7369 14.0164C12.6095 14.0822 12.4648 14.1029 12.325 14.0752L12.4471 13.4174C12.325 14.0752 12.325 14.0752 12.325 14.0752L12.3231 14.0748L12.3207 14.0743L12.3142 14.0729L12.2946 14.0687C12.2788 14.0653 12.2573 14.0603 12.2306 14.0538C12.1773 14.0408 12.1032 14.0214 12.0118 13.9941C11.8294 13.9397 11.5765 13.8536 11.2827 13.7241C10.6976 13.4664 9.93377 13.0299 9.24203 12.3149C8.55038 11.6001 8.12684 10.8095 7.87633 10.2039C7.75052 9.89972 7.66657 9.63792 7.61344 9.44901C7.58683 9.35441 7.56782 9.27766 7.55508 9.22251C7.54871 9.19492 7.54389 9.1727 7.54047 9.1563L7.53635 9.13611L7.53503 9.12939L7.53455 9.12689L7.53436 9.12586C7.53436 9.12586 7.53419 9.12498 8.1703 8.9971L7.53436 9.12586C7.50707 8.98085 7.52676 8.8297 7.59068 8.69757L8.60886 6.59281C8.64072 6.52696 8.63914 6.44902 8.60453 6.38458V6.38458L7.54767 4.41691C7.50954 4.34593 7.4372 4.30196 7.35879 4.30196H5.1673ZM8.85764 9.07393L8.85796 9.07504C8.89873 9.21999 8.96573 9.42995 9.06805 9.6773C9.27379 10.1747 9.61523 10.8063 10.1585 11.3677V11.3677M10.1585 11.3677C10.7016 11.9291 11.3112 12.2806 11.7908 12.4918C12.0293 12.5969 12.2316 12.6654 12.3712 12.7071V12.7071L14.1933 11.7661V11.7661C14.6399 11.5353 15.1679 11.5473 15.6043 11.798L17.5134 12.8951C17.9933 13.1708 18.2908 13.6937 18.2908 14.261V16.5264C18.2908 18.0988 16.8544 19.3069 15.3412 18.7791C13.1555 18.0169 9.65924 16.535 7.40915 14.2093C5.15901 11.8837 3.72527 8.27009 2.98777 6.01103C2.47719 4.44702 3.64601 2.9624 5.1673 2.9624H7.35879C7.90811 2.9624 8.41416 3.27035 8.68077 3.76663L9.73768 5.7344C9.97982 6.18524 9.99127 6.73061 9.76807 7.19191L8.85764 9.07393" fill="#BCBCBC"/>
</svg>
