<svg width="37" height="36" viewBox="0 0 37 36" fill="none" xmlns="http://www.w3.org/2000/svg">
<g clip-path="url(#clip0_233_433)">
<path d="M36.5 13.5C36.5034 12.6742 36.2795 11.8634 35.8529 11.1564C35.4262 10.4494 34.8133 9.87338 34.0811 9.49149C33.3489 9.1096 32.5258 8.93654 31.7018 8.99127C30.8778 9.04599 30.0848 9.32639 29.4096 9.80176C28.7344 10.2771 28.2029 10.9291 27.8735 11.6864C27.5441 12.4436 27.4295 13.2769 27.5421 14.095C27.6547 14.913 27.9902 15.6844 28.5119 16.3244C29.0336 16.9645 29.7214 17.4487 30.5 17.724V24C30.5 26.3869 29.5518 28.6761 27.864 30.364C26.1761 32.0518 23.8869 33 21.5 33C19.1131 33 16.8239 32.0518 15.136 30.364C13.4482 28.6761 12.5 26.3869 12.5 24V23.88C14.9961 23.5178 17.2787 22.27 18.931 20.3643C20.5834 18.4586 21.4952 16.0223 21.5 13.5V7.5C21.4976 5.51161 20.7067 3.60534 19.3007 2.19933C17.8947 0.793323 15.9884 0.00238179 14 0C13.6022 0 13.2206 0.158035 12.9393 0.43934C12.658 0.720644 12.5 1.10218 12.5 1.5C12.5 1.89782 12.658 2.27936 12.9393 2.56066C13.2206 2.84196 13.6022 3 14 3C15.1935 3 16.3381 3.47411 17.182 4.31802C18.0259 5.16193 18.5 6.30653 18.5 7.5V13.5C18.5 15.4891 17.7098 17.3968 16.3033 18.8033C14.8968 20.2098 12.9891 21 11 21C9.01088 21 7.10322 20.2098 5.6967 18.8033C4.29018 17.3968 3.5 15.4891 3.5 13.5V7.5C3.5 6.30653 3.97411 5.16193 4.81802 4.31802C5.66193 3.47411 6.80653 3 8 3C8.39782 3 8.77936 2.84196 9.06066 2.56066C9.34196 2.27936 9.5 1.89782 9.5 1.5C9.5 1.10218 9.34196 0.720644 9.06066 0.43934C8.77936 0.158035 8.39782 0 8 0C6.01161 0.00238179 4.10534 0.793323 2.69933 2.19933C1.29332 3.60534 0.502382 5.51161 0.5 7.5L0.5 13.5C0.504824 16.0223 1.41664 18.4586 3.06896 20.3643C4.72128 22.27 7.00388 23.5178 9.5 23.88V24C9.5 27.1826 10.7643 30.2348 13.0147 32.4853C15.2652 34.7357 18.3174 36 21.5 36C24.6826 36 27.7348 34.7357 29.9853 32.4853C32.2357 30.2348 33.5 27.1826 33.5 24V17.724C34.3744 17.4149 35.1319 16.8432 35.6689 16.087C36.2059 15.3309 36.4962 14.4274 36.5 13.5Z" fill="#1D428B"/>
</g>
<defs>
<clipPath id="clip0_233_433">
<rect width="36" height="36" fill="white" transform="translate(0.5)"/>
</clipPath>
</defs>
</svg>
