<svg width="44" height="44" viewBox="0 0 44 44" fill="none" xmlns="http://www.w3.org/2000/svg">
<path d="M18.3333 42.1667C18.3333 43.1805 17.5138 44 16.5 44H9.16667C4.11217 44 0 39.8878 0 34.8333V9.16667C0 4.11217 4.11217 0 9.16667 0H23.8333C28.8878 0 33 4.11217 33 9.16667V12.8333C33 13.8472 32.1805 14.6667 31.1667 14.6667C30.1528 14.6667 29.3333 13.8472 29.3333 12.8333V9.16667C29.3333 6.13433 26.8657 3.66667 23.8333 3.66667H9.16667C6.13433 3.66667 3.66667 6.13433 3.66667 9.16667V34.8333C3.66667 37.8657 6.13433 40.3333 9.16667 40.3333H16.5C17.5138 40.3333 18.3333 41.1528 18.3333 42.1667ZM25.6667 11C25.6667 9.98617 24.8472 9.16667 23.8333 9.16667H9.16667C8.15283 9.16667 7.33333 9.98617 7.33333 11C7.33333 12.0138 8.15283 12.8333 9.16667 12.8333H23.8333C24.8472 12.8333 25.6667 12.0138 25.6667 11ZM18.3333 20.1667C18.3333 19.1528 17.5138 18.3333 16.5 18.3333H9.16667C8.15283 18.3333 7.33333 19.1528 7.33333 20.1667C7.33333 21.1805 8.15283 22 9.16667 22H16.5C17.5138 22 18.3333 21.1805 18.3333 20.1667ZM9.16667 27.5C8.15283 27.5 7.33333 28.3195 7.33333 29.3333C7.33333 30.3472 8.15283 31.1667 9.16667 31.1667H12.8333C13.8472 31.1667 14.6667 30.3472 14.6667 29.3333C14.6667 28.3195 13.8472 27.5 12.8333 27.5H9.16667ZM44 31.1667C44 38.2415 38.2415 44 31.1667 44C24.0918 44 18.3333 38.2415 18.3333 31.1667C18.3333 24.0918 24.0918 18.3333 31.1667 18.3333C38.2415 18.3333 44 24.0918 44 31.1667ZM40.3333 31.1667C40.3333 26.1122 36.2212 22 31.1667 22C26.1122 22 22 26.1122 22 31.1667C22 36.2212 26.1122 40.3333 31.1667 40.3333C36.2212 40.3333 40.3333 36.2212 40.3333 31.1667ZM34.4813 28.8915L30.4058 32.8038C30.1418 33.0623 29.711 33.0678 29.4488 32.8075L27.3753 30.7762C26.6493 30.0648 25.4907 30.0758 24.783 30.8018C24.0735 31.526 24.0845 32.6847 24.8087 33.3942L26.884 35.4273C27.7273 36.2505 28.831 36.663 29.9328 36.663C31.0347 36.663 32.1347 36.2505 32.9633 35.4328L37.0205 31.5388C37.7502 30.8367 37.774 29.6762 37.0737 28.9465C36.3715 28.2132 35.2092 28.193 34.4813 28.8933V28.8915Z" fill="white"/>
</svg>
