<svg width="45" height="28" viewBox="0 0 45 28" fill="none" xmlns="http://www.w3.org/2000/svg">
<path d="M42.3218 4.43614C41.0807 3.8471 39.6213 3.9712 38.5122 4.76474C38.4407 4.81543 35.1315 7.98959 35.1315 7.98959C34.73 3.52025 30.7883 0 25.9997 0H9.49967C4.44517 0 0.333008 3.92051 0.333008 8.73944V19.2268C0.333008 24.0457 4.44517 27.9662 9.49967 27.9662H25.9997C30.8103 27.9662 34.7685 24.4145 35.137 19.9154C35.137 19.9154 38.4425 23.0546 38.5122 23.1053C39.1575 23.5668 39.922 23.8027 40.692 23.8027C41.2457 23.8027 41.803 23.6804 42.3218 23.4339C43.5612 22.8431 44.333 21.6528 44.333 20.3314V7.53864C44.333 6.21723 43.563 5.02692 42.3218 4.43614ZM31.4997 19.2268C31.4997 22.1178 29.032 24.4704 25.9997 24.4704H9.49967C6.46734 24.4704 3.99967 22.1178 3.99967 19.2268V8.73944C3.99967 5.84843 6.46734 3.49577 9.49967 3.49577H25.9997C29.032 3.49577 31.4997 5.84843 31.4997 8.73944V19.2268ZM35.1663 15.0021V12.9239L40.6663 7.63128L40.7122 20.2842L35.1663 15.0021ZM25.083 13.9831C25.083 14.9479 24.2617 15.731 23.2497 15.731H19.583V19.2268C19.583 20.1916 18.7617 20.9746 17.7497 20.9746C16.7377 20.9746 15.9163 20.1916 15.9163 19.2268V15.731H12.2497C11.2377 15.731 10.4163 14.9479 10.4163 13.9831C10.4163 13.0183 11.2377 12.2352 12.2497 12.2352H15.9163V8.73944C15.9163 7.7746 16.7377 6.99155 17.7497 6.99155C18.7617 6.99155 19.583 7.7746 19.583 8.73944V12.2352H23.2497C24.2617 12.2352 25.083 13.0183 25.083 13.9831Z" fill="white"/>
</svg>
