<svg width="37" height="44" viewBox="0 0 37 44" fill="none" xmlns="http://www.w3.org/2000/svg">
<path d="M18.6673 21.999C24.7338 21.999 29.6673 17.0655 29.6673 10.999C29.6673 4.93252 24.7338 -0.000976562 18.6673 -0.000976562C12.6008 -0.000976562 7.66732 4.93252 7.66732 10.999C7.66732 17.0655 12.6008 21.999 18.6673 21.999ZM18.6673 3.66569C22.7117 3.66569 26.0007 6.95469 26.0007 10.999C26.0007 15.0434 22.7117 18.3324 18.6673 18.3324C14.623 18.3324 11.334 15.0434 11.334 10.999C11.334 6.95469 14.623 3.66569 18.6673 3.66569ZM37.0007 42.1657C37.0007 43.1795 36.1812 43.999 35.1673 43.999C34.1535 43.999 33.334 43.1795 33.334 42.1657C33.334 37.058 30.3328 32.636 26.0007 30.5717V35.1477C28.1347 35.9049 29.6673 37.9417 29.6673 40.3324V42.1657C29.6673 43.1795 28.8478 43.999 27.834 43.999C26.8202 43.999 26.0007 43.1795 26.0007 42.1657V40.3324C26.0007 39.3204 25.1793 38.499 24.1673 38.499C23.1553 38.499 22.334 39.3204 22.334 40.3324V42.1657C22.334 43.1795 21.5145 43.999 20.5007 43.999C19.4868 43.999 18.6673 43.1795 18.6673 42.1657V40.3324C18.6673 37.9417 20.2 35.9049 22.334 35.1477V29.4644C21.7345 29.3782 21.1222 29.3324 20.5007 29.3324H16.834C15.5598 29.3324 14.3297 29.5194 13.1673 29.8677V35.3255C14.2637 35.9599 15.0007 37.1442 15.0007 38.5009C15.0007 40.5267 13.3598 42.1675 11.334 42.1675C9.30815 42.1675 7.66732 40.5267 7.66732 38.5009C7.66732 37.1442 8.40432 35.9599 9.50065 35.3255V31.6424C6.17865 33.9652 4.00065 37.817 4.00065 42.1675C4.00065 43.1814 3.18115 44.0009 2.16732 44.0009C1.15348 44.0009 0.333984 43.1814 0.333984 42.1675C0.333984 33.0687 7.73515 25.6675 16.834 25.6675H20.5007C29.5995 25.6675 37.0007 33.0669 37.0007 42.1657Z" fill="white"/>
</svg>
