<svg width="44" height="44" viewBox="0 0 44 44" fill="none" xmlns="http://www.w3.org/2000/svg">
<path d="M14.6657 0C8.59919 0 3.66569 4.9335 3.66569 11C3.66569 17.0665 8.59919 22 14.6657 22C20.7322 22 25.6657 17.0665 25.6657 11C25.6657 4.9335 20.7322 0 14.6657 0ZM14.6657 18.3333C10.6214 18.3333 7.33236 15.0443 7.33236 11C7.33236 6.95567 10.6214 3.66667 14.6657 3.66667C18.71 3.66667 21.999 6.95567 21.999 11C21.999 15.0443 18.71 18.3333 14.6657 18.3333ZM9.16569 25.6667H20.1657V29.3333H9.16569C6.13336 29.3333 3.66569 31.801 3.66569 34.8333V44H-0.000976562V34.8333C-0.000976562 29.7788 4.11119 25.6667 9.16569 25.6667ZM40.8567 21.2685L33.9157 18.9677L26.9747 21.2685C25.0955 21.8918 23.8324 23.639 23.8324 25.619V31.9C23.8324 38.4432 30.6414 42.3555 32.7295 43.3987L33.8369 43.9523L34.9864 43.4903C37.1002 42.6397 44.0009 39.2883 44.0009 31.9V25.619C44.0009 23.639 42.7395 21.8918 40.8585 21.2685H40.8567ZM40.3324 31.9C40.3324 36.6337 35.8884 39.0958 33.9982 39.9282C32.3189 39.028 27.499 36.08 27.499 31.9V25.619C27.499 25.223 27.752 24.8728 28.1279 24.7482L33.9157 22.8305L39.7035 24.7482C40.0794 24.8728 40.3324 25.223 40.3324 25.619V31.9Z" fill="white"/>
</svg>
