<svg width="24" height="24" viewBox="0 0 24 24" fill="none" xmlns="http://www.w3.org/2000/svg">
<g clip-path="url(#clip0_428_23)">
<path d="M23.0004 20.9999H21.7214L20.4004 17.0509C20.2015 16.4545 19.8202 15.9356 19.3104 15.5676C18.8007 15.1995 18.1881 15.001 17.5594 14.9999H14.0004C13.47 14.9999 12.9613 14.7892 12.5862 14.4142C12.2111 14.0391 12.0004 13.5304 12.0004 12.9999H18.0004C18.2656 12.9999 18.52 12.8946 18.7075 12.707C18.895 12.5195 19.0004 12.2652 19.0004 11.9999C19.0004 11.7347 18.895 11.4804 18.7075 11.2928C18.52 11.1053 18.2656 10.9999 18.0004 10.9999H12.0004V7.99994C11.9944 7.95472 11.9854 7.90996 11.9734 7.86594C12.92 7.62853 13.7472 7.05322 14.2992 6.24832C14.8512 5.44343 15.0898 4.46451 14.9702 3.49589C14.8506 2.52727 14.381 1.6358 13.6498 0.989354C12.9187 0.342905 11.9764 -0.013916 11.0004 -0.013916C10.0244 -0.013916 9.08212 0.342905 8.35094 0.989354C7.61975 1.6358 7.15015 2.52727 7.03054 3.49589C6.91094 4.46451 7.14959 5.44343 7.70156 6.24832C8.25353 7.05322 9.08073 7.62853 10.0274 7.86594C10.0154 7.90996 10.0064 7.95472 10.0004 7.99994V12.9999C10.0025 14.044 10.4127 15.0459 11.1435 15.7916C11.8742 16.5373 12.8676 16.9677 13.9114 16.9909C13.7286 18.0839 13.2468 19.1048 12.5192 19.9406C11.7917 20.7764 10.8469 21.3944 9.78965 21.7261C8.73237 22.0578 7.60389 22.0903 6.5293 21.8198C5.45472 21.5494 4.47601 20.9867 3.70167 20.1941C2.92734 19.4014 2.38763 18.4098 2.14238 17.3292C1.89713 16.2486 1.95592 15.1212 2.31222 14.072C2.66853 13.0227 3.30844 12.0926 4.16101 11.3848C5.01358 10.677 6.04551 10.2191 7.14239 10.0619C7.40509 10.0243 7.64207 9.8838 7.80119 9.67142C7.96031 9.45903 8.02855 9.19214 7.99089 8.92944C7.95323 8.66674 7.81276 8.42976 7.60037 8.27064C7.38799 8.11152 7.12109 8.04328 6.85839 8.08094C5.38236 8.29263 3.99487 8.91265 2.85249 9.87101C1.71011 10.8294 0.858317 12.0879 0.393228 13.5047C-0.0718613 14.9214 -0.131733 16.44 0.22037 17.8889C0.572472 19.3379 1.32253 20.6596 2.38591 21.705C3.44929 22.7503 4.78366 23.4776 6.23844 23.8049C7.69323 24.1321 9.21052 24.0463 10.6191 23.557C12.0277 23.0677 13.2715 22.1945 14.2102 21.0359C15.1488 19.8773 15.745 18.4794 15.9314 16.9999H17.5594C17.7694 16.9999 17.974 17.0659 18.1443 17.1887C18.3147 17.3115 18.442 17.4847 18.5084 17.6839L20.0524 22.3159C20.1187 22.515 20.2459 22.6881 20.416 22.8109C20.5862 22.9336 20.7906 22.9998 21.0004 22.9999H23.0004C23.2656 22.9999 23.52 22.8946 23.7075 22.707C23.895 22.5195 24.0004 22.2652 24.0004 21.9999C24.0004 21.7347 23.895 21.4804 23.7075 21.2928C23.52 21.1053 23.2656 20.9999 23.0004 20.9999ZM9.00039 3.99994C9.00039 3.60438 9.11769 3.2177 9.33745 2.8888C9.55721 2.5599 9.86957 2.30355 10.235 2.15218C10.6005 2.0008 11.0026 1.9612 11.3906 2.03837C11.7785 2.11554 12.1349 2.30602 12.4146 2.58572C12.6943 2.86543 12.8848 3.2218 12.962 3.60976C13.0391 3.99772 12.9995 4.39985 12.8482 4.76531C12.6968 5.13076 12.4404 5.44311 12.1115 5.66288C11.7826 5.88264 11.396 5.99994 11.0004 5.99994C10.47 5.99994 9.96125 5.78923 9.58618 5.41415C9.21111 5.03908 9.00039 4.53037 9.00039 3.99994Z" fill="#1D428B"/>
</g>
<defs>
<clipPath id="clip0_428_23">
<rect width="24" height="24" fill="white"/>
</clipPath>
</defs>
</svg>
